<svg xmlns="http://www.w3.org/2000/svg" viewBox="0 0 50 50">
    <circle cx="25" cy="25" r="23" fill="#04111d"/>
    <path fill="#2081e2" d="M 25 2 C 12.317 2 2 12.317 2 25 C 2 37.683 12.317 48 25 48 C 37.683 48 48 37.683 48 25 C 48 12.317 37.683 2 25 2 z M 36.800781 13 L 37.068359 13 C 37.259359 17.798 35.069359 22.616188 30.693359 26.992188 L 30.671875 27.013672 L 30.652344 27.035156 C 29.798344 27.996156 29.161766 28.606937 28.384766 29.210938 L 28 29.511719 L 28 30 C 28 33.967 26.925969 36.659969 24.292969 39.292969 L 24 39.585938 L 24 33 L 24 31.613281 L 19.71875 33.732422 L 16.160156 30.308594 L 18.386719 26 L 17 26 L 10.414062 26 L 10.707031 25.707031 C 13.340031 23.074031 16.033 22 20 22 L 20.449219 22 L 20.746094 21.664062 C 21.526094 20.787063 22.212813 20.101641 23.007812 19.306641 C 27.251813 15.062641 31.763781 13 36.800781 13 z M 29 19 A 2 2 0 0 0 27 21 A 2 2 0 0 0 29 23 A 2 2 0 0 0 31 21 A 2 2 0 0 0 29 19 z M 14.773438 31.773438 L 15.599609 32.599609 C 15.028609 33.517609 14.937766 34.320797 15.009766 34.966797 C 15.667766 35.039797 16.487734 35.001688 17.427734 34.429688 L 18.246094 35.246094 C 18.073094 35.468094 17.892984 35.683188 17.708984 35.867188 C 16.108984 37.467188 14.009766 38.166797 12.009766 37.966797 C 11.909766 35.966797 12.608984 33.867578 14.208984 32.267578 C 14.376984 32.099578 14.571437 31.933437 14.773438 31.773438 z"></path>
</svg> 